<?xml version="1.0" encoding="UTF-8"?>
<svg xmlns="http://www.w3.org/2000/svg"
     viewBox="1 6 23.5 15"
     width="800px" height="800px"
     fill="currentColor">
  <g>
    <path d="M19.417,16.694c-0.096,0-0.188,0.02-0.282,0.028c0.096-0.59,0.16-0.658,0.172-1.28
      c0.006-0.051,0.016-0.101,0.019-0.154c-0.149-3.101-3.876-4.877-8.076-4.915c-4.203,0.036-7.929,1.813-8.079,4.914
      c0.003,0.058,0.016,0.112,0.019,0.168c0-0.002,0-0.002,0-0.002c0.125,5.557,3.681,10.015,8.06,10.015
      c2.397,0,4.543-1.344,6.019-3.465c0.526,0.599,1.289,0.98,2.149,0.98c1.588,0,2.878-1.823,2.878-3.412
      C22.295,17.982,21.006,16.694,19.417,16.694z M16.465,17.433c-1.289,0.735-3.167,1.224-5.253,1.22
      c-2.088,0.004-3.967-0.485-5.257-1.22c-1.309-0.744-1.926-1.656-1.916-2.463c-0.011-0.814,0.609-1.726,1.916-2.469
      c1.291-0.736,3.17-1.222,5.257-1.22c2.085-0.003,3.964,0.484,5.253,1.22c1.309,0.743,1.929,1.655,1.918,2.469
      C18.393,15.775,17.774,16.689,16.465,17.433z M19.417,21.423c-0.61-0.001-1.101-0.424-1.251-0.985
      c0.208-0.451,0.392-1.46,0.548-1.951c0.206-0.132,0.438-0.231,0.702-0.234c0.724,0.003,1.314,0.592,1.317,1.318
      C20.731,20.3,20.142,21.422,19.417,21.423z M14.704,13.794c0.001-0.035,0-0.069-0.004-0.101
      c-0.059-0.454-0.276-0.771-0.662-0.97c-0.382-0.197-0.937-0.274-1.654-0.231c-1.557,0.095-4.638,1.85-5.65,2.506
      c0.958,0.728,3.896,2.307,5.453,2.525c0.711,0.1,1.271,0.066,1.667-0.099c0.398-0.169,0.64-0.469,0.735-0.914
      c0.008-0.033,0.012-0.067,0.012-0.101c0.017-0.41-0.303-0.835-0.812-1.086l-0.568-0.276l0.587-0.235
      C14.337,14.602,14.689,14.203,14.704,13.794z"/>
  </g>
</svg>
